<svg width="28" height="28" viewBox="0 0 28 28" fill="none" xmlns="http://www.w3.org/2000/svg">
<path d="M20.2196 23.6107C19.0135 24.7804 17.6966 24.5957 16.4289 24.0416C15.0874 23.4752 13.8567 23.4506 12.4413 24.0416C10.6691 24.805 9.73371 24.5834 8.67527 23.6107C2.66928 17.4171 3.55541 7.98513 10.3737 7.64036C12.0352 7.72655 13.1921 8.55154 14.1644 8.62542C15.6166 8.3299 17.0074 7.48029 18.5581 7.59111C20.4165 7.73887 21.8195 8.47766 22.7426 9.80749C18.9027 12.1101 19.8134 17.1708 23.3333 18.5868C22.6318 20.4338 21.7211 22.2685 20.2073 23.623L20.2196 23.6107ZM14.0413 7.56648C13.8567 4.82062 16.0843 2.55498 18.6442 2.33334C19.0011 5.51016 15.7643 7.87431 14.0413 7.56648Z" fill="#1E1E1E"/>
</svg>
