<svg width="28" height="28" viewBox="0 0 28 28" fill="none" xmlns="http://www.w3.org/2000/svg">
<path d="M20.2196 23.6106C19.0135 24.7804 17.6966 24.5957 16.4289 24.0416C15.0874 23.4752 13.8567 23.4506 12.4413 24.0416C10.6691 24.805 9.73371 24.5834 8.67527 23.6106C2.66928 17.4171 3.55541 7.9851 10.3737 7.64033C12.0352 7.72652 13.1921 8.55151 14.1644 8.62539C15.6166 8.32987 17.0074 7.48026 18.5581 7.59108C20.4165 7.73883 21.8195 8.47763 22.7426 9.80746C18.9027 12.11 19.8134 17.1708 23.3333 18.5868C22.6318 20.4338 21.7211 22.2685 20.2073 23.6229L20.2196 23.6106ZM14.0413 7.56645C13.8567 4.82059 16.0843 2.55495 18.6442 2.33331C19.0011 5.51013 15.7643 7.87428 14.0413 7.56645Z" fill="#F9F8F4"/>
</svg>
