<svg width="30" height="30" viewBox="0 0 30 30" fill="none" xmlns="http://www.w3.org/2000/svg">
<path fill-rule="evenodd" clip-rule="evenodd" d="M7.5 5H22.5C23.8261 5 25.0979 5.52678 26.0355 6.46447C26.9732 7.40215 27.5 8.67392 27.5 10V22.5C27.5 23.8261 26.9732 25.0979 26.0355 26.0355C25.0979 26.9732 23.8261 27.5 22.5 27.5H7.5C6.17392 27.5 4.90215 26.9732 3.96447 26.0355C3.02678 25.0979 2.5 23.8261 2.5 22.5V10C2.5 8.67392 3.02678 7.40215 3.96447 6.46447C4.90215 5.52678 6.17392 5 7.5 5ZM7.5 7.5C6.83696 7.5 6.20107 7.76339 5.73223 8.23223C5.26339 8.70107 5 9.33696 5 10V22.5C5 23.163 5.26339 23.7989 5.73223 24.2678C6.20107 24.7366 6.83696 25 7.5 25H22.5C23.163 25 23.7989 24.7366 24.2678 24.2678C24.7366 23.7989 25 23.163 25 22.5V10C25 9.33696 24.7366 8.70107 24.2678 8.23223C23.7989 7.76339 23.163 7.5 22.5 7.5H7.5Z" fill="#4A4A4A"/>
<path fill-rule="evenodd" clip-rule="evenodd" d="M3.75 12.5C3.75 12.1685 3.8817 11.8505 4.11612 11.6161C4.35054 11.3817 4.66848 11.25 5 11.25H25C25.3315 11.25 25.6495 11.3817 25.8839 11.6161C26.1183 11.8505 26.25 12.1685 26.25 12.5C26.25 12.8315 26.1183 13.1495 25.8839 13.3839C25.6495 13.6183 25.3315 13.75 25 13.75H5C4.66848 13.75 4.35054 13.6183 4.11612 13.3839C3.8817 13.1495 3.75 12.8315 3.75 12.5ZM10 2.5C10.3315 2.5 10.6495 2.6317 10.8839 2.86612C11.1183 3.10054 11.25 3.41848 11.25 3.75V8.75C11.25 9.08152 11.1183 9.39946 10.8839 9.63388C10.6495 9.8683 10.3315 10 10 10C9.66848 10 9.35054 9.8683 9.11612 9.63388C8.8817 9.39946 8.75 9.08152 8.75 8.75V3.75C8.75 3.41848 8.8817 3.10054 9.11612 2.86612C9.35054 2.6317 9.66848 2.5 10 2.5ZM20 2.5C20.3315 2.5 20.6495 2.6317 20.8839 2.86612C21.1183 3.10054 21.25 3.41848 21.25 3.75V8.75C21.25 9.08152 21.1183 9.39946 20.8839 9.63388C20.6495 9.8683 20.3315 10 20 10C19.6685 10 19.3505 9.8683 19.1161 9.63388C18.8817 9.39946 18.75 9.08152 18.75 8.75V3.75C18.75 3.41848 18.8817 3.10054 19.1161 2.86612C19.3505 2.6317 19.6685 2.5 20 2.5Z" fill="#4A4A4A"/>
<path d="M10 16.25C10 16.5815 9.8683 16.8995 9.63388 17.1339C9.39946 17.3683 9.08152 17.5 8.75 17.5C8.41848 17.5 8.10054 17.3683 7.86612 17.1339C7.6317 16.8995 7.5 16.5815 7.5 16.25C7.5 15.9185 7.6317 15.6005 7.86612 15.3661C8.10054 15.1317 8.41848 15 8.75 15C9.08152 15 9.39946 15.1317 9.63388 15.3661C9.8683 15.6005 10 15.9185 10 16.25ZM10 21.25C10 21.5815 9.8683 21.8995 9.63388 22.1339C9.39946 22.3683 9.08152 22.5 8.75 22.5C8.41848 22.5 8.10054 22.3683 7.86612 22.1339C7.6317 21.8995 7.5 21.5815 7.5 21.25C7.5 20.9185 7.6317 20.6005 7.86612 20.3661C8.10054 20.1317 8.41848 20 8.75 20C9.08152 20 9.39946 20.1317 9.63388 20.3661C9.8683 20.6005 10 20.9185 10 21.25ZM16.25 16.25C16.25 16.5815 16.1183 16.8995 15.8839 17.1339C15.6495 17.3683 15.3315 17.5 15 17.5C14.6685 17.5 14.3505 17.3683 14.1161 17.1339C13.8817 16.8995 13.75 16.5815 13.75 16.25C13.75 15.9185 13.8817 15.6005 14.1161 15.3661C14.3505 15.1317 14.6685 15 15 15C15.3315 15 15.6495 15.1317 15.8839 15.3661C16.1183 15.6005 16.25 15.9185 16.25 16.25ZM16.25 21.25C16.25 21.5815 16.1183 21.8995 15.8839 22.1339C15.6495 22.3683 15.3315 22.5 15 22.5C14.6685 22.5 14.3505 22.3683 14.1161 22.1339C13.8817 21.8995 13.75 21.5815 13.75 21.25C13.75 20.9185 13.8817 20.6005 14.1161 20.3661C14.3505 20.1317 14.6685 20 15 20C15.3315 20 15.6495 20.1317 15.8839 20.3661C16.1183 20.6005 16.25 20.9185 16.25 21.25ZM22.5 16.25C22.5 16.5815 22.3683 16.8995 22.1339 17.1339C21.8995 17.3683 21.5815 17.5 21.25 17.5C20.9185 17.5 20.6005 17.3683 20.3661 17.1339C20.1317 16.8995 20 16.5815 20 16.25C20 15.9185 20.1317 15.6005 20.3661 15.3661C20.6005 15.1317 20.9185 15 21.25 15C21.5815 15 21.8995 15.1317 22.1339 15.3661C22.3683 15.6005 22.5 15.9185 22.5 16.25ZM22.5 21.25C22.5 21.5815 22.3683 21.8995 22.1339 22.1339C21.8995 22.3683 21.5815 22.5 21.25 22.5C20.9185 22.5 20.6005 22.3683 20.3661 22.1339C20.1317 21.8995 20 21.5815 20 21.25C20 20.9185 20.1317 20.6005 20.3661 20.3661C20.6005 20.1317 20.9185 20 21.25 20C21.5815 20 21.8995 20.1317 22.1339 20.3661C22.3683 20.6005 22.5 20.9185 22.5 21.25Z" fill="#4A4A4A"/>
</svg>
