<svg width="597" height="132" viewBox="0 0 597 132" fill="none" xmlns="http://www.w3.org/2000/svg">
<path fill-rule="evenodd" clip-rule="evenodd" d="M258.517 31.8774C246.336 32.5934 236.592 38.4421 231.101 48.3318C226.999 55.7215 225.631 66.2472 227.498 76.0473C229.665 87.4207 236.635 96.1538 246.781 100.204C254.241 103.183 263.558 103.714 271.626 101.622C284.491 98.2855 293.214 88.5708 295.436 75.1067C296.444 69.0031 296.206 62.0918 294.794 56.4277C293.255 50.2529 289.87 44.3891 285.587 40.4766C278.723 34.2067 269.382 31.2381 258.517 31.8774ZM161.696 67.3023V101.642L177.532 101.568C190.879 101.507 193.666 101.447 195.263 101.195C203.719 99.8525 209.518 97.1387 214.043 92.4044C219.85 86.33 222.513 78.4371 222.513 67.3034C222.513 60.243 221.506 54.8446 219.281 49.9862C215.463 41.6515 208.872 36.4713 199.234 34.2359C194.474 33.1312 194.324 33.1236 177.352 33.0394L161.696 32.9627V67.3023ZM363.459 67.3034V101.641L381.46 101.568C397.033 101.506 399.73 101.454 401.443 101.185C407.668 100.209 412.078 98.5307 415.547 95.818C417.564 94.2413 419.741 92.4077 420.839 90.0556C421.979 87.6162 422.302 86.2544 422.42 83.3668C422.571 79.7027 422.009 77.328 420.378 74.7244C419.053 72.611 415.697 70.3357 413.324 69.2558C410.73 68.0744 407.356 67.1932 404.351 66.9103L402.924 66.7764L404.916 66.3584C408.528 65.5993 411.197 64.5248 413.674 62.8304C417.561 60.1739 420.055 56.891 420.258 51.9732C420.44 47.5434 418.661 44.2735 415.942 40.8643C413.612 37.9421 408.726 35.2521 403.642 34.0912C399.462 33.1366 399.137 33.1214 380.739 33.0415L363.459 32.9659V67.3034ZM426.803 67.3034V101.641L444.804 101.568C460.632 101.504 463.056 101.457 464.873 101.174C474.813 99.6268 480.823 96.0124 483.648 89.8829C484.89 87.1885 485.383 84.0676 485.073 80.869C484.78 77.8345 483.86 75.4987 482.159 73.4685C479.143 69.867 474.785 67.8314 468.22 66.9589C466.421 66.7191 466.418 66.718 467.318 66.5766C469.093 66.298 472.348 65.3207 473.97 64.5788C479.609 62.0021 482.365 58.3953 482.903 52.89C483.282 49.0056 482.511 45.7087 480.463 42.4539C477.532 37.7952 471.633 34.6376 463.618 33.4389C461.602 33.1366 459.524 33.0934 444.083 33.034L426.803 32.9659V67.3034ZM489.786 67.3034V101.619H530.03V85.4521L522.496 85.4035L509.187 85.3559L509.141 59.1728L509.094 32.9897H489.786V67.3034ZM264.896 47.6568C270.747 49.119 274.592 54.161 275.864 62.0389C276.313 64.8164 276.271 70.1931 275.781 73.0538C274.484 80.6077 270.776 85.4013 265.014 86.9704C263.921 87.2674 263.022 87.3635 261.314 87.3635C259.607 87.3635 258.707 87.2674 257.615 86.9704C251.967 85.4326 248.474 80.937 247.017 73.3313C246.685 71.5895 246.62 70.6273 246.622 67.3973C246.628 61.7603 247.232 58.7063 249.098 54.8932C249.864 53.3295 250.295 52.7259 251.651 51.308C253.535 49.3404 255.3 48.268 257.642 47.6687C259.633 47.1579 262.879 47.1525 264.896 47.6568ZM396.15 49.1276C397.726 49.7767 398.542 50.4905 399.125 51.7302C399.563 52.6589 399.641 53.0563 399.642 54.3435C399.643 56.3435 398.997 57.7787 397.681 58.6998C396.003 59.8737 395.585 59.9363 388.859 60.0195L382.769 60.0951V48.5618L388.949 48.6341C394.83 48.7043 395.181 48.7281 396.15 49.1276ZM458.204 48.7907C461.303 49.3026 463.077 51.3177 463.077 54.3306C463.077 57.3845 461.268 59.392 458.082 59.8704C457.405 59.973 454.435 60.0583 451.482 60.0605L446.113 60.0648V48.5942L451.572 48.5963C454.575 48.5963 457.559 48.6849 458.204 48.7907ZM193.097 49.8922C197.828 51.3684 200.887 55.1416 202.141 61.0518C202.68 63.5918 202.81 69.0042 202.402 71.9102C201.551 77.9792 199.037 81.9986 194.809 84.0525C192.636 85.1087 191.109 85.3268 185.789 85.3419L181.097 85.3549L181.05 67.3357L181.004 49.3177L186.374 49.3933C191.294 49.4635 191.857 49.5056 193.097 49.8922ZM397.296 73.827C399.247 74.435 400.508 75.3885 401.276 76.8323C401.765 77.7535 401.808 77.9835 401.808 79.7135C401.808 81.2092 401.735 81.748 401.451 82.3463C400.972 83.3538 399.819 84.5277 398.805 85.0395C397.127 85.8862 395.932 86.006 389.13 86.0093L382.769 86.0125V73.3832L389.582 73.4641C394.933 73.5289 396.588 73.6056 397.296 73.827ZM461.076 73.9512C463.987 75.0289 465.281 76.8291 465.288 79.8085C465.295 82.9769 463.536 84.9683 460.049 85.7382C459.132 85.9412 457.283 86.0071 452.474 86.0093L446.113 86.0125V73.3832L453.016 73.4533C459.654 73.5192 459.963 73.5387 461.076 73.9512Z" fill="#F9F8F4"/>
<path fill-rule="evenodd" clip-rule="evenodd" d="M558.394 33.3298C549.256 34.6159 541.152 39.645 536.403 46.9764C533.798 50.9979 532.299 54.8046 531.324 59.8801C530.706 63.096 530.699 70.7935 531.311 74.2308C533.372 85.8148 540.113 94.6008 550.099 98.7196C558.09 102.016 568.963 102.163 577.636 99.09C584.731 96.577 590.645 91.3493 593.872 84.7382C594.524 83.4034 595.712 80.4769 595.713 80.2058C595.713 80.1691 590.919 80.14 585.06 80.14H574.407L573.53 81.5568C572.314 83.519 570.917 84.8667 569.253 85.682C567.956 86.317 567.569 86.75 564.497 86.75C561.245 86.75 561.106 86.3504 559.461 85.5135C556.063 83.7878 553.911 80.2814 552.699 74.5029L552.547 73.7729H596.704L596.884 72.2773C597.203 69.6391 596.828 61.9556 596.242 59.1306C593.22 44.5758 583.586 35.2369 569.611 33.3168C566.211 32.8492 561.77 32.8546 558.394 33.3298ZM567.878 48.3468C571.265 49.6491 573.634 52.689 574.764 57.1836C575.474 60.0042 576.709 59.7138 563.987 59.7138C551.169 59.7138 552.414 60.0442 553.356 56.8898C554.583 52.7819 556.561 50.0865 559.344 48.7258C561.961 47.4483 565.167 47.3047 567.878 48.3468Z" fill="#F9F8F4"/>
<path fill-rule="evenodd" clip-rule="evenodd" d="M300.56 57.0615C300.645 78.275 300.703 81.289 301.072 83.4056C302.566 91.9681 305.646 97.1926 310.749 99.82C313.605 101.291 315.881 101.764 319.978 101.739C322.743 101.722 323.981 101.588 325.69 101.117C331.231 99.591 334.948 96.2164 337.749 90.1668L338.954 87.5664L338.962 93.913L338.97 101.576H358.936V33.1084H338.503L338.42 54.878C338.33 78.9748 338.394 77.9662 336.714 81.5136C335.313 84.4714 333.083 85.9012 329.839 85.9196C325.204 85.9455 322.512 83.1788 321.425 77.2707C320.989 74.9047 320.958 73.3593 320.955 53.9234L320.951 33.1084H300.465L300.56 57.0615Z" fill="#F9F8F4"/>
<path d="M0 31.5977C0 14.1466 13.5776 0 30.3267 0C47.0748 0 60.6523 14.1466 60.6523 31.5977V63.1944H30.3256C13.5776 63.1944 0 49.0488 0 31.5977Z" fill="#F9F8F4"/>
<path d="M0 99.7412C0 117.192 13.5776 131.339 30.3267 131.339C47.0748 131.339 60.6523 117.192 60.6523 99.7412V68.1445H30.3256C13.5776 68.1445 0 82.2901 0 99.7412Z" fill="#F9F8F4"/>
<path d="M126.059 31.5977C126.059 14.1466 112.481 0 95.7318 0C78.9838 0 65.4072 14.1466 65.4072 31.5977V63.1944H95.7329C112.481 63.1944 126.059 49.0488 126.059 31.5977Z" fill="#F9F8F4"/>
<path d="M126.059 99.7412C126.059 117.192 112.481 131.339 95.7318 131.339C78.9838 131.339 65.4072 117.192 65.4072 99.7412V68.1445H95.7329C112.481 68.1445 126.059 82.2901 126.059 99.7412Z" fill="#F9F8F4"/>
</svg>
