<svg width="463" height="102" viewBox="0 0 463 102" fill="none" xmlns="http://www.w3.org/2000/svg">
<path fill-rule="evenodd" clip-rule="evenodd" d="M200.601 25.0132C191.173 25.5674 183.63 30.0945 179.38 37.7495C176.205 43.4694 175.146 51.6167 176.591 59.2023C178.268 68.0057 183.664 74.7655 191.517 77.9009C197.291 80.2062 204.503 80.6175 210.748 78.9984C220.706 76.4155 227.458 68.896 229.178 58.4742C229.958 53.7498 229.774 48.4002 228.68 44.016C227.489 39.2365 224.869 34.6977 221.554 31.6693C216.242 26.8162 209.011 24.5184 200.601 25.0132ZM125.658 52.4333V79.0134L137.916 78.9566C148.246 78.9089 150.404 78.863 151.64 78.6674C158.186 77.6284 162.674 75.5278 166.177 71.8633C170.671 67.1615 172.733 61.0521 172.733 52.4342C172.733 46.9692 171.953 42.7906 170.231 39.03C167.276 32.5787 162.174 28.569 154.713 26.8388C151.029 25.9836 150.913 25.9778 137.776 25.9126L125.658 25.8533V52.4333ZM281.83 52.4342V79.0126L295.763 78.9566C307.817 78.9081 309.905 78.868 311.231 78.6598C316.049 77.9042 319.463 76.6053 322.148 74.5055C323.709 73.2851 325.394 71.8658 326.244 70.0453C327.127 68.157 327.376 67.103 327.468 64.8679C327.585 62.0317 327.15 60.1936 325.887 58.1783C324.862 56.5425 322.264 54.7813 320.427 53.9454C318.419 53.031 315.808 52.3489 313.482 52.1299L312.377 52.0263L313.919 51.7028C316.715 51.1152 318.781 50.2835 320.698 48.972C323.707 46.9157 325.637 44.3746 325.794 40.568C325.935 37.1393 324.558 34.6082 322.454 31.9694C320.65 29.7075 316.868 27.6253 312.933 26.7267C309.698 25.9878 309.446 25.9761 295.205 25.9143L281.83 25.8558V52.4342ZM330.86 52.4342V79.0126L344.794 78.9566C357.045 78.9064 358.922 78.8705 360.328 78.6515C368.022 77.4537 372.674 74.656 374.861 69.9115C375.822 67.826 376.204 65.4103 375.964 62.9345C375.737 60.5857 375.025 58.7776 373.708 57.2062C371.373 54.4185 368 52.8429 362.919 52.1675C361.527 51.982 361.524 51.9811 362.221 51.8716C363.595 51.656 366.114 50.8995 367.369 50.3253C371.734 48.3308 373.868 45.539 374.284 41.2777C374.578 38.2711 373.981 35.7191 372.396 33.1998C370.127 29.5938 365.56 27.1497 359.357 26.2219C357.796 25.9878 356.188 25.9544 344.236 25.9084L330.86 25.8558V52.4342ZM379.612 52.4342V78.9959H410.762V66.4819L404.93 66.4443L394.628 66.4075L394.593 46.1408L394.557 25.8741H379.612V52.4342ZM205.539 37.227C210.067 38.3588 213.044 42.2615 214.028 48.3593C214.376 50.5091 214.343 54.671 213.964 56.8852C212.96 62.7322 210.09 66.4427 205.63 67.6572C204.784 67.8871 204.088 67.9614 202.766 67.9614C201.445 67.9614 200.748 67.8871 199.903 67.6572C195.531 66.4669 192.827 62.9871 191.7 57.1C191.442 55.7518 191.393 55.007 191.394 52.5069C191.398 48.1436 191.866 45.7797 193.311 42.8283C193.904 41.6179 194.237 41.1507 195.287 40.0531C196.744 38.5302 198.111 37.7001 199.924 37.2362C201.465 36.8409 203.977 36.8367 205.539 37.227ZM307.134 38.3655C308.354 38.8679 308.985 39.4204 309.437 40.38C309.776 41.0988 309.836 41.4064 309.837 42.4028C309.837 43.9508 309.338 45.0617 308.319 45.7747C307.02 46.6833 306.697 46.7318 301.491 46.7962L296.777 46.8547V37.9275L301.561 37.9835C306.112 38.0378 306.384 38.0562 307.134 38.3655ZM355.166 38.1047C357.565 38.5009 358.938 40.0607 358.938 42.3928C358.938 44.7566 357.538 46.3105 355.072 46.6808C354.548 46.7602 352.249 46.8263 349.963 46.8279L345.807 46.8313V37.9526L350.033 37.9543C352.357 37.9543 354.667 38.0228 355.166 38.1047ZM149.963 38.9573C153.626 40.1 155.993 43.0205 156.964 47.5953C157.381 49.5613 157.482 53.7507 157.166 56C156.507 60.6977 154.561 63.8088 151.289 65.3986C149.606 66.2161 148.425 66.385 144.307 66.3967L140.675 66.4067L140.639 52.4592L140.603 38.5126L144.76 38.5711C148.568 38.6255 149.004 38.6581 149.963 38.9573ZM308.021 57.4837C309.531 57.9543 310.507 58.6924 311.102 59.81C311.48 60.523 311.513 60.701 311.513 62.0401C311.513 63.1978 311.457 63.6149 311.237 64.0779C310.867 64.8578 309.974 65.7664 309.189 66.1626C307.89 66.818 306.965 66.9107 301.7 66.9133L296.777 66.9158V57.1402L302.05 57.2029C306.192 57.253 307.473 57.3124 308.021 57.4837ZM357.389 57.5798C359.642 58.414 360.644 59.8075 360.649 62.1136C360.655 64.5661 359.293 66.1075 356.594 66.7034C355.884 66.8606 354.453 66.9116 350.731 66.9133L345.807 66.9158V57.1402L351.15 57.1945C356.289 57.2455 356.528 57.2605 357.389 57.5798Z" fill="#FDE2F9"/>
<path fill-rule="evenodd" clip-rule="evenodd" d="M432.717 26.1381C425.643 27.1336 419.37 31.0263 415.694 36.7011C413.678 39.8139 412.518 42.7603 411.763 46.689C411.285 49.1782 411.28 55.1363 411.753 57.7969C413.349 66.7634 418.567 73.5641 426.295 76.7522C432.481 79.3041 440.897 79.4178 447.611 77.0389C453.102 75.0938 457.68 71.0473 460.178 65.93C460.682 64.8969 461.602 62.6317 461.603 62.4219C461.603 62.3934 457.892 62.3709 453.357 62.3709H445.111L444.432 63.4675C443.491 64.9863 442.41 66.0295 441.122 66.6606C440.118 67.1521 439.818 67.4873 437.44 67.4873C434.923 67.4873 434.815 67.178 433.542 66.5302C430.912 65.1945 429.246 62.4804 428.308 58.0076L428.19 57.4425H462.37L462.509 56.2848C462.756 54.2428 462.466 48.2955 462.012 46.1089C459.673 34.8429 452.216 27.6142 441.399 26.128C438.767 25.7661 435.33 25.7703 432.717 26.1381ZM440.057 37.7618C442.679 38.7699 444.513 41.1228 445.388 44.6018C445.937 46.7851 446.893 46.5602 437.046 46.5602C427.124 46.5602 428.088 46.816 428.817 44.3744C429.767 41.1947 431.298 39.1084 433.452 38.0552C435.477 37.0663 437.959 36.9552 440.057 37.7618Z" fill="#FDE2F9"/>
<path fill-rule="evenodd" clip-rule="evenodd" d="M233.145 44.5074C233.21 60.9274 233.255 63.2603 233.541 64.8987C234.697 71.5263 237.081 75.5703 241.031 77.604C243.242 78.7425 245.004 79.1086 248.175 79.0894C250.315 79.076 251.273 78.9723 252.596 78.6079C256.885 77.4268 259.762 74.8147 261.93 70.1321L262.863 68.1193L262.869 73.0318L262.875 78.9631H278.33V25.9668H262.514L262.449 42.8173C262.38 61.4691 262.429 60.6883 261.129 63.4342C260.044 65.7237 258.319 66.8304 255.807 66.8446C252.22 66.8647 250.136 64.7231 249.295 60.15C248.957 58.3186 248.933 57.1225 248.931 42.0783L248.928 25.9668H233.071L233.145 44.5074Z" fill="#FDE2F9"/>
<path d="M0.5 24.7976C0.5 11.2898 11.0095 0.339844 23.974 0.339844C36.9376 0.339844 47.4471 11.2898 47.4471 24.7976V49.2546H23.9732C11.0095 49.2546 0.5 38.3054 0.5 24.7976Z" fill="#FDE2F9"/>
<path d="M0.5 77.5429C0.5 91.0507 11.0095 102.001 23.974 102.001C36.9376 102.001 47.4471 91.0507 47.4471 77.5429V53.0859H23.9732C11.0095 53.0859 0.5 64.0351 0.5 77.5429Z" fill="#FDE2F9"/>
<path d="M98.0733 24.7976C98.0733 11.2898 87.5637 0.339844 74.5993 0.339844C61.6357 0.339844 51.127 11.2898 51.127 24.7976V49.2546H74.6001C87.5637 49.2546 98.0733 38.3054 98.0733 24.7976Z" fill="#FDE2F9"/>
<path d="M98.0733 77.5429C98.0733 91.0507 87.5637 102.001 74.5993 102.001C61.6357 102.001 51.127 91.0507 51.127 77.5429V53.0859H74.6001C87.5637 53.0859 98.0733 64.0351 98.0733 77.5429Z" fill="#FDE2F9"/>
</svg>
