<svg width="65" height="65" viewBox="0 0 65 65" fill="none" xmlns="http://www.w3.org/2000/svg">
<path fill-rule="evenodd" clip-rule="evenodd" d="M25.53 12.3438C15.3331 18.8926 9.66815 26.5152 8.53516 35.2116C6.77068 48.7492 18.8769 55.3752 25.0113 49.4223C31.1457 43.4693 27.4691 35.9117 23.0275 33.8453C18.5858 31.7788 15.8693 32.4992 16.3433 29.7381C16.8172 26.9769 23.1358 19.3246 28.6879 15.7604C28.8843 15.5929 29.0096 15.3569 29.0383 15.1003C29.067 14.8437 28.9969 14.5859 28.8422 14.3791L27.4691 12.593C26.8733 11.8184 26.3018 11.8482 25.53 12.3425M52.3777 12.3438C42.1808 18.8926 36.5159 26.5152 35.3829 35.2116C33.617 48.7492 45.7233 55.3752 51.8577 49.4223C57.992 43.4693 54.3155 35.9117 49.8724 33.8453C45.4294 31.7788 42.7143 32.4992 43.1883 29.7381C43.6622 26.9769 49.9821 19.3246 55.5342 15.7604C55.7305 15.5927 55.8555 15.3566 55.884 15.1C55.9124 14.8435 55.842 14.5857 55.6872 14.3791L54.3155 12.593C53.7196 11.8184 53.1482 11.8482 52.3777 12.3425" fill="#FDE2F9"/>
</svg>
